<svg xmlns="http://www.w3.org/2000/svg" viewBox="0 0 78.58 58.42"><path d="M23.32,50.2C16.68,49.47,8.41,48,1.74,43.38a31.33,31.33,0,0,0,6.05,7.36c4.8,4,11.32,5.57,16.46,6.46a36.65,36.65,0,0,0,8.72.66,25,25,0,0,0,8.9-2.19c-4.41-4-10.83-4.66-17-5.31Z" style="fill:none;stroke:#fff;stroke-miterlimit:10"/><path d="M16.57,48.25c2.38.47,4.7.78,6.85,1l1.49.16c5.53.58,11.22,1.18,15.65,4.07a32.88,32.88,0,0,0-9.81-9.39,37.11,37.11,0,0,0-7.71-3,40.33,40.33,0,0,1-7.34-2.73,20.57,20.57,0,0,1-7.34-6.53C10,38.52,12.07,44.27,16.57,48.25Z" style="fill:none;stroke:#fff;stroke-miterlimit:10"/><path d="M52.89,47.91c2-.66,4-1.16,6-1.64,3.49-7,4.64-14.82,5.33-22.13-1.58,3-4.35,5.39-7.23,7.89l-1.22,1.06a11.22,11.22,0,0,1-4.59,2.12c-1.75.51-3.4,1-4.56,2.41-.43.52-.91,1.22-1.41,2A21,21,0,0,1,42.55,43a78,78,0,0,1,.73,11.09A21.11,21.11,0,0,1,52.89,47.91Z" style="fill:none;stroke:#fff;stroke-miterlimit:10"/><path d="M41.56,42.76a33.25,33.25,0,0,0-1.25-5.12,57.59,57.59,0,0,0-4.41-9.2c-.72-1.3-1.46-2.64-2.15-4-1.61-3.16-3.62-7.73-3.56-12.58a29.72,29.72,0,0,0-3.61,13.67,73.93,73.93,0,0,0,1.66,16.34,23.05,23.05,0,0,1,3,1.41c4.8,2.73,8.32,7,11.13,11.08a77.37,77.37,0,0,0-.72-11.27A.52.52,0,0,1,41.56,42.76Z" style="fill:none;stroke:#fff;stroke-miterlimit:10"/><path d="M60.06,46c1.7-.42,3.42-.86,5.08-1.42a36.56,36.56,0,0,0,5.58-2.41,42.5,42.5,0,0,0,7.1-19,14.24,14.24,0,0,1-5,5.27c-2.42,1.51-7,4.49-9.11,6.15A49.31,49.31,0,0,1,60.06,46Z" style="fill:none;stroke:#fff;stroke-miterlimit:10"/><path d="M17.64,38.3a49.87,49.87,0,0,0,5.67,1.94c1.29.39,2.6.79,3.9,1.25A88.52,88.52,0,0,1,25.69,30a.48.48,0,0,1-.06-.24,4,4,0,0,0-1.17-2.58,21.7,21.7,0,0,0-4-3.44,34,34,0,0,1-3-2.39,17,17,0,0,1-4.56-7.16,55.5,55.5,0,0,0,4.77,24S17.64,38.28,17.64,38.3Z" style="fill:none;stroke:#fff;stroke-miterlimit:10"/><path d="M36.72,28l.82,1.49.33-.52a20.8,20.8,0,0,1,3.9-5.07c.87-.76,1.79-1.47,2.68-2.16l.6-.46c-.51-6.8-2.3-13.49-4.11-20A59.94,59.94,0,0,0,33.75,22a.44.44,0,0,1-.06.16c.28.61.57,1.22.9,1.85C35.27,25.35,36,26.69,36.72,28Z" style="fill:none;stroke:#fff;stroke-miterlimit:10"/><path d="M71.12,43a38.46,38.46,0,0,1-5.68,2.45c-2,.68-4.15,1.2-6.19,1.7s-4.08,1-6.06,1.66a19.39,19.39,0,0,0-9.85,6.76,31.19,31.19,0,0,0,9.15,1.68c3.14.26,6.79.37,10.09-.77C67,55,70,51.48,71.85,48.84a50.67,50.67,0,0,0,4.78-9.4,38.61,38.61,0,0,1-5.29,3.43A.48.48,0,0,1,71.12,43Z" style="fill:none;stroke:#fff;stroke-miterlimit:10"/><path d="M55.13,32.38l1.23-1.06c1.51-1.32,3-2.61,4.28-4h0c1.25-3.43.65-11.94.16-15.12-1.56,3.37-6.74,10.55-7,10.89l0,0A38.39,38.39,0,0,1,52.05,34,8.16,8.16,0,0,0,55.13,32.38Z" style="fill:none;stroke:#fff;stroke-miterlimit:10"/><path d="M45.87,37c1.35-1.65,3.22-2.19,5-2.71h0c1.87-5,2-10.14,2-15.55,0-2,.06-4.1.2-6.18a20.56,20.56,0,0,1-4,6.36A34.89,34.89,0,0,1,45,22.46c-.88.68-1.79,1.39-2.64,2.12a20.88,20.88,0,0,0-3.73,4.86l-.6,1a45.37,45.37,0,0,1,3.13,6.92,32.63,32.63,0,0,1,1.17,4.52,28.79,28.79,0,0,0,2-2.79C44.93,38.3,45.42,37.58,45.87,37Z" style="fill:none;stroke:#fff;stroke-miterlimit:10"/></svg>